<svg width="31" height="37" viewBox="0 0 31 37" fill="none" xmlns="http://www.w3.org/2000/svg">
<path d="M0 9.9314C0 9.65525 0.223858 9.4314 0.5 9.4314H3.14284C3.61718 9.4314 4.02626 9.76463 4.12218 10.2292L8.67635 32.2843H15.5H21.7767L26.5424 10.2203C26.6418 9.75996 27.0489 9.4314 27.5198 9.4314H30.5C30.7761 9.4314 31 9.65525 31 9.9314V35C31 36.1046 30.1046 37 29 37H15.5H2C0.89543 37 0 36.1046 0 35V24.6667V9.9314Z" fill="#BEBEBE"/>
<path d="M17.8935 12.8695C17.531 14.1624 18.6543 15.2826 20.1494 15.2826C21.6444 15.2826 22.7722 14.1782 22.4052 12.8695C22.1796 12.0652 21.0517 10.8586 20.1494 8.84778C19.247 10.8586 18.1191 12.0652 17.8935 12.8695Z" fill="#BEBEBE"/>
<path d="M9.39137 5.52989C8.90793 7.30762 10.4058 8.84783 12.3991 8.84783C14.3925 8.84783 15.8963 7.32932 15.4069 5.52989C15.1061 4.42391 13.6022 2.76495 12.3991 0C11.196 2.76495 9.69215 4.42391 9.39137 5.52989Z" fill="#BEBEBE"/>
<path d="M9.39137 20.0082C8.90793 21.7859 10.4058 23.3261 12.3991 23.3261C14.3925 23.3261 15.8963 21.8076 15.4069 20.0082C15.1061 18.9022 13.6022 17.2432 12.3991 14.4783C11.196 17.2432 9.69215 18.9022 9.39137 20.0082Z" fill="#BEBEBE"/>
</svg>
