<svg width="31" height="32" viewBox="0 0 31 32" fill="none" xmlns="http://www.w3.org/2000/svg">
<path d="M1.87879 32C1.34646 32 0.89994 31.8293 0.539212 31.488C0.179738 31.1479 0 30.7259 0 30.2222V3.55556C0 2.57778 0.368242 1.74044 1.10473 1.04356C1.83996 0.347852 2.72424 0 3.75758 0H15.0303C16.0636 0 16.9485 0.347852 17.685 1.04356C18.4203 1.74044 18.7879 2.57778 18.7879 3.55556V16H20.6667C21.7 16 22.5849 16.3479 23.3214 17.0436C24.0566 17.7404 24.4242 18.5778 24.4242 19.5556V27.5556C24.4242 28.0593 24.6046 28.4812 24.9653 28.8213C25.3248 29.1627 25.7707 29.3333 26.303 29.3333C26.8354 29.3333 27.2813 29.1627 27.6407 28.8213C28.0015 28.4812 28.1818 28.0593 28.1818 27.5556V14.7556C27.9 14.9037 27.6025 14.9997 27.2894 15.0436C26.9763 15.0886 26.6475 15.1111 26.303 15.1111C24.9879 15.1111 23.8763 14.6815 22.9682 13.8222C22.0601 12.963 21.6061 11.9111 21.6061 10.6667C21.6061 9.71852 21.8804 8.86637 22.429 8.11022C22.9763 7.35526 23.704 6.81482 24.6121 6.48889L21.653 3.68889C21.3712 3.42222 21.2303 3.11111 21.2303 2.75556C21.2303 2.4 21.3712 2.08889 21.653 1.82222C21.9348 1.55556 22.2636 1.42222 22.6394 1.42222C23.0152 1.42222 23.3439 1.54074 23.6258 1.77778L29.5909 7.28889C30.0606 7.73333 30.4126 8.25185 30.6468 8.84444C30.8823 9.43704 31 10.0444 31 10.6667V27.5556C31 28.8 30.546 29.8519 29.6379 30.7111C28.7298 31.5704 27.6182 32 26.303 32C24.9879 32 23.8763 31.5704 22.9682 30.7111C22.0601 29.8519 21.6061 28.8 21.6061 27.5556V18.6667H18.7879V30.2222C18.7879 30.7259 18.6081 31.1479 18.2487 31.488C17.8879 31.8293 17.4414 32 16.9091 32H1.87879ZM3.75758 12.4444H15.0303V3.55556H3.75758V12.4444ZM26.303 12.4444C26.8354 12.4444 27.2813 12.2738 27.6407 11.9324C28.0015 11.5923 28.1818 11.1704 28.1818 10.6667C28.1818 10.163 28.0015 9.74044 27.6407 9.39911C27.2813 9.05896 26.8354 8.88889 26.303 8.88889C25.7707 8.88889 25.3248 9.05896 24.9653 9.39911C24.6046 9.74044 24.4242 10.163 24.4242 10.6667C24.4242 11.1704 24.6046 11.5923 24.9653 11.9324C25.3248 12.2738 25.7707 12.4444 26.303 12.4444Z" fill="#BEBEBE"/>
</svg>
