<svg width="26" height="37" viewBox="0 0 26 37" fill="none" xmlns="http://www.w3.org/2000/svg">
<path fill-rule="evenodd" clip-rule="evenodd" d="M7.77423 35.4654C9.23971 36.4089 10.9337 37.0472 13.0009 36.9973C15.0645 37.0472 16.7621 36.4089 18.2276 35.4654L18.196 31.4471H7.80581L7.77423 35.4654ZM18.0103 29.5971C18.0103 21.5364 26.61 18.778 25.9655 10.7488C25.5606 5.68335 22.1151 0 13.0009 0C3.88672 0 0.44126 5.68335 0.0344918 10.7506C-0.610022 18.778 7.99155 21.5364 7.99155 29.5971H18.0103ZM3.71398 11.0966C4.09846 6.29016 7.63864 3.6964 13.0009 3.6964C18.3614 3.6964 21.6452 6.23281 22.0297 11.0392C22.2396 13.6737 20.7202 15.4294 18.6697 18.3025C17.1578 20.4227 15.6923 22.6372 14.8583 25.897H11.1435C10.3096 22.6372 8.84409 20.4227 7.33032 18.3007C5.28162 15.4294 3.50224 13.7311 3.71398 11.0966Z" fill="#BEBEBE"/>
</svg>
