<?xml version="1.0" encoding="iso-8859-1"?>
<!-- Generator: Adobe Illustrator 18.0.0, SVG Export Plug-In . SVG Version: 6.00 Build 0)  -->
<!DOCTYPE svg PUBLIC "-//W3C//DTD SVG 1.1//EN" "http://www.w3.org/Graphics/SVG/1.1/DTD/svg11.dtd">
<svg version="1.1" id="Capa_1" xmlns="http://www.w3.org/2000/svg" xmlns:xlink="http://www.w3.org/1999/xlink" x="0px" y="0px"
	 viewBox="0 0 297 297" style="enable-background:new 0 0 297 297;" xml:space="preserve">
<g>
	<path d="M275.575,115.95c-0.698-2.699-2.44-5.012-4.844-6.427L91.361,3.868c-1.675-0.987-3.513-1.457-5.326-1.457
		c-3.602,0-7.108,1.853-9.068,5.18L24.139,97.274c-1.415,2.403-1.818,5.27-1.12,7.969c0.698,2.699,2.44,5.012,4.843,6.427
		l179.37,105.656c1.676,0.986,3.513,1.457,5.326,1.457c3.602,0,7.109-1.852,9.069-5.181l52.828-89.684
		C275.869,121.516,276.273,118.649,275.575,115.95z M208.769,170.073c-1.954,1.956-4.667,3.081-7.433,3.081
		c-2.765,0-5.477-1.125-7.434-3.081c-1.956-1.955-3.08-4.668-3.08-7.433c0-2.766,1.124-5.479,3.08-7.434
		c1.956-1.956,4.669-3.08,7.434-3.08c2.766,0,5.479,1.124,7.433,3.08c1.956,1.955,3.082,4.668,3.082,7.434
		C211.852,165.405,210.726,168.118,208.769,170.073z"/>
	<path d="M15.577,64.166l8.152,4.803l28.281-48.013l-8.152-4.804c-2.402-1.416-5.269-1.816-7.969-1.119
		c-2.699,0.697-5.012,2.439-6.426,4.843l-17.61,29.896c-1.415,2.402-1.818,5.269-1.12,7.969
		C11.432,60.44,13.174,62.752,15.577,64.166z"/>
	<path d="M296.665,148.506c-0.698-2.699-2.44-5.012-4.843-6.426l-8.153-4.803l-45.891,77.908l8.152,4.803
		c1.631,0.961,3.476,1.455,5.336,1.455c0.881,0,1.766-0.111,2.633-0.335c2.699-0.698,5.012-2.44,6.427-4.843l35.219-59.791
		C296.961,154.072,297.363,151.205,296.665,148.506z"/>
	<path d="M159.81,284.075v-71.599c0-3.3-2.326-7.37-5.17-9.045l-45.384-26.733c-2.844-1.675-5.17-0.345-5.17,2.955v59.212H10.514
		C4.708,238.865,0,243.573,0,249.38v34.695c0,5.807,4.708,10.514,10.514,10.514h138.783
		C155.102,294.589,159.81,289.882,159.81,284.075z"/>
</g>
<g>
</g>
<g>
</g>
<g>
</g>
<g>
</g>
<g>
</g>
<g>
</g>
<g>
</g>
<g>
</g>
<g>
</g>
<g>
</g>
<g>
</g>
<g>
</g>
<g>
</g>
<g>
</g>
<g>
</g>
</svg>
