<?xml version="1.0" encoding="utf-8"?>
<svg viewBox="0 0 500 500" xmlns="http://www.w3.org/2000/svg">
  <path d="M 82.403 306.317 L 85.046 331.366 C 190.032 379.695 309.306 379.695 414.23 331.366 L 416.891 306.317 C 310.48 256.347 188.893 256.347 82.398 306.317 L 82.403 306.317 Z"/>
  <path d="M 449.084 221.514 L 411.079 282.235 C 307.955 235.834 191.343 235.834 88.319 282.235 L 50.223 221.514 C 49.761 220.714 49.335 219.825 48.915 218.89 C 45.962 211.087 49.499 202.257 56.845 199.098 C 105.145 178.412 149.296 148.322 186.915 110.279 C 222.051 74.803 277.336 74.803 312.385 110.279 C 350.093 148.319 394.162 178.408 442.416 199.098 C 443.34 199.444 444.187 199.948 445.021 200.515 C 451.613 205.159 453.512 214.565 449.083 221.514 L 449.084 221.514 Z M 212.099 134.316 C 208.591 165.968 223.352 196.772 249.67 212.375 C 275.907 196.772 290.748 165.968 287.297 134.316 C 286.62 134.763 285.95 135.204 285.354 135.607 C 272.95 143.325 256.968 138.909 249.672 125.798 C 249.291 126.513 248.906 127.184 248.489 127.849 C 240.055 140.251 223.813 143.108 212.099 134.316 Z"/>
</svg>