<?xml version="1.0" encoding="utf-8"?>
<svg viewBox="0 0 500 500" xmlns="http://www.w3.org/2000/svg">
  <g transform="matrix(6.650664, 0, 0, 5.939547, -1807.301663, -864.12721)" style="">
    <path d="M 308.751 146.249 C 308.751 146.249 292.968 162.573 277.185 162.573 L 277.185 191.131 C 277.185 207.455 308.751 227.851 308.751 227.851 C 308.751 227.851 340.317 207.477 340.317 191.131 L 340.317 162.573 C 324.534 162.573 308.751 146.249 308.751 146.249 Z M 332.426 191.152 C 332.426 197.965 319.757 210.133 308.751 218.078 C 297.745 210.112 285.075 197.923 285.075 191.152 L 285.075 169.777 C 294.777 167.492 303.384 161.528 308.751 157.131 C 314.117 161.528 322.724 167.492 332.426 169.777 L 332.426 191.152 Z"/>
    <path d="M 303.91 178.897 L 292.967 178.897 L 300.88 187.168 L 296.923 199.314 L 308.75 191.152 L 320.598 199.314 L 316.642 187.06 L 324.534 178.897 L 313.548 178.897 L 308.729 166.534 L 303.91 178.897 Z"/>
  </g>
</svg>