<?xml version="1.0" encoding="utf-8"?>
<!-- Svg Vector Icons : http://www.onlinewebfonts.com/icon -->
<!DOCTYPE svg PUBLIC "-//W3C//DTD SVG 1.1//EN" "http://www.w3.org/Graphics/SVG/1.1/DTD/svg11.dtd">
<svg version="1.1" xmlns="http://www.w3.org/2000/svg" xmlns:xlink="http://www.w3.org/1999/xlink" x="0px" y="0px" viewBox="0 0 1000 1000" enable-background="new 0 0 1000 1000" xml:space="preserve">
<metadata> Svg Vector Icons : http://www.onlinewebfonts.com/icon </metadata>
<g><g transform="translate(0.000000,512.000000) scale(0.100000,-0.100000)"><path d="M3104.1,4618v-402h-564.6c-310.1,0-564.6-3.8-564.6-9.6c0-3.8,254.6-336.9,564.6-738.8l564.6-729.3v-763.7V1211l-564.6-3.8l-566.6-5.7l566.6-731.2l564.6-731.2v-784.8v-786.7l-566.6-3.8l-566.6-5.7l566.6-733.1l566.6-731.2V-3890v-583.8h564.6h564.6v-153.1V-4780H4999h765.6v153.1v153.1h564.6H6894v583.8v583.8l566.6,731.2l566.6,733.1l-566.6,5.7l-566.6,3.8v786.7v784.8l564.6,731.2l564.6,731.2l-564.6,5.7L6894,1211v763.7v763.7l566.6,735l568.5,733.1l-568.5,5.7l-566.6,3.8v402v402H4999H3104.1V4618z M5276.6,4302.2c212.5-53.6,388.6-155,545.5-313.9c289-289,405.8-650.8,336.9-1035.5c-99.5-558.9-591.4-976.2-1150.3-976.2c-539.8,0-1016.4,367.5-1150.4,882.4c-42.1,158.9-42.1,430.7,0,589.5c76.6,294.8,319.7,606.8,580,744.6C4679.4,4321.4,5025.8,4365.4,5276.6,4302.2z M5284.2,1264.6c568.5-137.8,962.8-712,884.3-1284.3c-40.2-285.2-143.6-495.8-338.8-691c-325.4-325.4-792.4-432.6-1226.9-279.4c-319.6,112.9-601,392.4-713.9,712c-153.1,436.4-47.9,901.5,279.5,1228.8C4465,1247.4,4878.5,1364.1,5284.2,1264.6z M5362.7-1422.7c68.9-17.2,212.5-72.7,321.6-126.3c616.3-300.5,955.1-995.3,815.4-1676.7c-91.9-453.6-400-849.8-815.4-1052.7c-262.2-128.3-409.6-164.6-685.2-164.6c-271.8,0-421.1,36.4-681.4,160.8c-516.8,248.8-849.8,784.8-849.8,1368.6c0,434.5,168.4,817.3,495.7,1123.6C4334.9-1441.9,4857.4-1304.1,5362.7-1422.7z"/><path d="M4696.6-1774.9c-206.7-53.6-357.9-143.6-522.5-306.3c-243.1-243.1-350.3-499.6-348.3-842.2c0-220.1,45.9-392.4,151.2-583.8c74.6-135.9,319.6-371.3,461.3-446c342.6-179.9,780.9-179.9,1121.6,0c254.6,135.9,491.9,434.5,580,733.1c45.9,155,45.9,457.5,0,612.5c-88,298.6-325.4,597.2-580,733.1C5305.3-1740.5,4976.1-1702.2,4696.6-1774.9z"/></g></g>
</svg>