<svg width="16" height="16" viewBox="0 0 16 16" fill="none" xmlns="http://www.w3.org/2000/svg">
<path fill-rule="evenodd" clip-rule="evenodd" d="M9.04998 0.435C8.46998 -0.145 7.52998 -0.145 6.94998 0.435L0.435977 6.95C-0.144023 7.53 -0.144023 8.469 0.435977 9.048L6.95198 15.564C7.53198 16.144 8.47098 16.144 9.04998 15.564L15.566 9.048C16.146 8.468 16.146 7.529 15.566 6.95L9.04998 0.435ZM8.99998 8.466V7H7.49998C7.10215 7 6.72062 7.15804 6.43932 7.43934C6.15801 7.72064 5.99998 8.10218 5.99998 8.5V11H4.99998V8.5C4.99998 7.83696 5.26337 7.20107 5.73221 6.73223C6.20105 6.26339 6.83694 6 7.49998 6H8.99998V4.534C8.99999 4.4865 9.01355 4.43998 9.03904 4.3999C9.06454 4.35982 9.10093 4.32784 9.14395 4.30769C9.18697 4.28754 9.23484 4.28007 9.28196 4.28615C9.32907 4.29222 9.37348 4.3116 9.40998 4.342L11.77 6.308C11.89 6.408 11.89 6.592 11.77 6.692L9.40998 8.658C9.37348 8.6884 9.32907 8.70778 9.28196 8.71385C9.23484 8.71993 9.18697 8.71246 9.14395 8.69231C9.10093 8.67216 9.06454 8.64018 9.03904 8.6001C9.01355 8.56002 8.99999 8.5135 8.99998 8.466V8.466Z" fill="black"/>
</svg>
