<svg width="45" height="45" viewBox="0 0 45 45" fill="none" xmlns="http://www.w3.org/2000/svg">
<path d="M24.0341 16.6203C24.7122 16.6203 25.3625 16.3913 25.842 15.9837C26.3215 15.5761 26.5909 15.0233 26.5909 14.4469C26.5909 13.8704 26.3215 13.3176 25.842 12.91C25.3625 12.5024 24.7122 12.2734 24.0341 12.2734C23.356 12.2734 22.7056 12.5024 22.2261 12.91C21.7466 13.3176 21.4773 13.8704 21.4773 14.4469C21.4773 15.0233 21.7466 15.5761 22.2261 15.9837C22.7056 16.3913 23.356 16.6203 24.0341 16.6203ZM24.0341 23.1406C24.7122 23.1406 25.3625 22.9116 25.842 22.504C26.3215 22.0964 26.5909 21.5436 26.5909 20.9672C26.5909 20.3907 26.3215 19.8379 25.842 19.4303C25.3625 19.0227 24.7122 18.7937 24.0341 18.7937C23.356 18.7937 22.7056 19.0227 22.2261 19.4303C21.7466 19.8379 21.4773 20.3907 21.4773 20.9672C21.4773 21.5436 21.7466 22.0964 22.2261 22.504C22.7056 22.9116 23.356 23.1406 24.0341 23.1406ZM26.5909 27.4875C26.5909 28.0639 26.3215 28.6167 25.842 29.0243C25.3625 29.4319 24.7122 29.6609 24.0341 29.6609C23.356 29.6609 22.7056 29.4319 22.2261 29.0243C21.7466 28.6167 21.4773 28.0639 21.4773 27.4875C21.4773 26.911 21.7466 26.3582 22.2261 25.9506C22.7056 25.543 23.356 25.314 24.0341 25.314C24.7122 25.314 25.3625 25.543 25.842 25.9506C26.3215 26.3582 26.5909 26.911 26.5909 27.4875V27.4875Z" fill="#BEBEBE"/>
<path fill-rule="evenodd" clip-rule="evenodd" d="M26.7832 1.14016C25.2632 -0.380055 22.7997 -0.380055 21.2797 1.14016L4.2082 18.2164C2.68817 19.7366 2.68817 22.1978 4.2082 23.7154L21.2849 40.7943C22.805 42.3145 25.2658 42.3145 26.7832 40.7943L43.86 23.7154C45.38 22.1952 45.38 19.734 43.86 18.2164L26.7832 1.14016ZM18.79 10.4843C18.79 9.78911 19.0661 9.12244 19.5576 8.63089C20.0491 8.13934 20.7157 7.8632 21.4107 7.8632H26.6522C27.3473 7.8632 28.0139 8.13934 28.5053 8.63089C28.9968 9.12244 29.2729 9.78911 29.2729 10.4843V31.4528C29.2729 32.1479 28.9968 32.8146 28.5053 33.3062C28.0139 33.7977 27.3473 34.0739 26.6522 34.0739H21.4107C20.7157 34.0739 20.0491 33.7977 19.5576 33.3062C19.0661 32.8146 18.79 32.1479 18.79 31.4528V10.4843Z" fill="#BEBEBE"/>
</svg>
