<?xml version="1.0" encoding="utf-8"?>
<svg viewBox="0 0 500 500" xmlns="http://www.w3.org/2000/svg">
  <path d="M 164.443 160.271 C 164.443 151.751 171.353 144.852 179.895 144.852 L 365.347 144.852 C 373.897 144.852 380.8 151.751 380.8 160.271 C 380.8 168.8 373.897 175.69 365.347 175.69 L 179.895 175.69 C 171.353 175.69 164.443 168.8 164.443 160.271 Z M 164.443 237.365 C 164.443 228.845 171.353 221.946 179.895 221.946 L 365.347 221.946 C 373.897 221.946 380.8 228.845 380.8 237.365 C 380.8 245.894 373.897 252.784 365.347 252.784 L 179.895 252.784 C 171.353 252.784 164.443 245.894 164.443 237.365 Z M 380.8 314.459 C 380.8 322.988 373.897 329.879 365.347 329.879 L 179.895 329.879 C 171.353 329.879 164.443 322.988 164.443 314.459 C 164.443 305.931 171.353 299.04 179.895 299.04 L 365.347 299.04 C 373.897 299.04 380.8 305.931 380.8 314.459 Z" fill="#BEBEBE" style=""/>
</svg>